<?xml version="1.0" encoding="UTF-8"?>
<svg width="163px" height="131px" viewBox="0 0 163 131" version="1.1" xmlns="http://www.w3.org/2000/svg" xmlns:xlink="http://www.w3.org/1999/xlink">
    <!-- Generator: Sketch 42 (36781) - http://www.bohemiancoding.com/sketch -->
    <title>clientvine-logo-icon</title>
    <desc>Created with Sketch.</desc>
    <defs></defs>
    <g id="Page-1" stroke="none" stroke-width="1" fill="none" fill-rule="evenodd">
        <g id="clientvine-logo" fill-rule="nonzero">
            <g id="Group">
                <path d="M143.8,0.6 C160.9,0.6 167.8,11.4 159.3,24.5 L97.2,120.3 C88.7,133.5 74.7,133.5 66.2,120.3 L4.1,24.6 C-4.4,11.4 2.5,0.7 19.6,0.7 L143.8,0.7 L143.8,0.6 Z" id="Shape" fill="#55B596"></path>
                <path d="M157.3,3.9 L157.3,3.9 C157.3,3.9 155.5,2.7 153.5,2.1 C140.7,18.9 131,27.8 118.5,44.8 C118.2,45.2 117.8,45.4 117.3,45.8 C115.1,34.8 108.4,28.8 98.7,28.7 C93.1,28.6 88.2,30.9 83.7,33.8 C78.9,36.8 74.4,40.3 69.6,43.4 C59.9,49.8 40.9,46.8 40.9,46.8 C39.8,46.6 38.4,46.3 37.8,46.1 C37.8,46.1 37.8,46.1 37.1,45.9 C37.1,46.3 37,46.6 37.1,46.7 C37.3,47.1 37.7,47.4 38,47.7 C45.8,55.8 54.6,62.7 65,67.2 C74.7,71.4 84.7,74.1 95.3,71.5 C103.5,69.5 110.2,65.4 114.7,58.1 C116.2,55.7 117.6,53.2 119.3,50.9 C133.2,32 143,23.6 156.9,4.7 C157.3,4.2 157.2,4.3 157.2,4.3" id="Shape" fill="#FFFFFF"></path>
            </g>
        </g>
    </g>
</svg>