<?xml version="1.0" encoding="utf-8"?>
<!-- Generator: Adobe Illustrator 18.1.1, SVG Export Plug-In . SVG Version: 6.00 Build 0)  -->
<!DOCTYPE svg PUBLIC "-//W3C//DTD SVG 1.1//EN" "http://www.w3.org/Graphics/SVG/1.1/DTD/svg11.dtd">
<svg version="1.1" id="Logo-Green" xmlns="http://www.w3.org/2000/svg" xmlns:xlink="http://www.w3.org/1999/xlink" x="0px" y="0px"
	 viewBox="0 0 736 169" enable-background="new 0 0 736 169" xml:space="preserve">
<g>
	<g>
		<path fill="#55B596" d="M160.8,21.6c17.1,0,24,10.8,15.5,23.9l-62.1,95.8c-8.5,13.2-22.5,13.2-31,0L21.1,45.6
			c-8.5-13.2-1.6-23.9,15.5-23.9H160.8z"/>
	</g>
	<path fill="#FFFFFF" d="M174.3,24.9L174.3,24.9c0,0-1.8-1.2-3.8-1.8c-12.8,16.8-22.5,25.7-35,42.7c-0.3,0.4-0.7,0.6-1.2,1
		c-2.2-11-8.9-17-18.6-17.1c-5.6-0.1-10.5,2.2-15,5.1c-4.8,3-9.3,6.5-14.1,9.6c-9.7,6.4-28.7,3.4-28.7,3.4c-1.1-0.2-2.5-0.5-3.1-0.7
		c0,0,0,0-0.7-0.2c0,0.4-0.1,0.7,0,0.8c0.2,0.4,0.6,0.7,0.9,1c7.8,8.1,16.6,15,27,19.5c9.7,4.2,19.7,6.9,30.3,4.3
		c8.2-2,14.9-6.1,19.4-13.4c1.5-2.4,2.9-4.9,4.6-7.2c13.9-18.9,23.7-27.3,37.6-46.2c0.4-0.5,0.3-0.4,0.3-0.4"/>
</g>
<g>
	<g>
		<g>
			<path fill="#55B596" d="M196.8,55.4h37.7v9.7h-35.2c-2.7,0-4.9,0.9-6.7,2.5c-1.8,1.5-2.7,3.5-2.7,5.9v23.2c0,2.4,0.9,4.4,2.7,6
				c1.8,1.6,4,2.4,6.7,2.4h35.2v9.7h-37.7c-4.8,0-8.9-1.6-12.5-4.7c-3.4-3.1-5.1-6.8-5.1-11.1V71.2c0-4.4,1.7-8.1,5.2-11.2
				C187.9,56.9,192,55.4,196.8,55.4z"/>
			<g>
				<path fill="#55B596" d="M196.8,57.7c12.6,0,25.1,0,37.7,0c-0.8-0.8-1.5-1.5-2.3-2.3c0,3.2,0,6.5,0,9.7c0.8-0.8,1.5-1.5,2.3-2.3
					c-8.3,0-16.6,0-24.9,0c-7.8,0-20.1-1.5-21.9,9c-0.6,3.5-0.1,7.3-0.1,10.9c0,4.5-0.2,9.1,0,13.6c0.4,10.9,10.2,11.2,18.5,11.2
					c9.5,0,18.9,0,28.4,0c-0.8-0.8-1.5-1.5-2.3-2.3c0,3.2,0,6.4,0,9.7c0.8-0.8,1.5-1.5,2.3-2.3c-7.1,0-14.2,0-21.3,0
					c-7.3,0-18,1.7-24.6-2.1c-9.5-5.5-7.1-18-7.1-27.3c0-3.7-0.1-7.5,0-11.2C181.7,63.4,188.5,58,196.8,57.7c2.9-0.1,3-4.7,0-4.6
					c-10.9,0.3-19.7,7.8-19.9,19c-0.1,7.9,0,15.8,0,23.6c0,9.8,4.4,18.3,14.7,20.8c6.3,1.5,13.7,0.6,20.1,0.6c7.6,0,15.2,0,22.8,0
					c1.2,0,2.3-1.1,2.3-2.3c0-3.2,0-6.4,0-9.7c0-1.2-1.1-2.3-2.3-2.3c-6.7,0-13.4,0-20.1,0c-6.1,0-21.3,2.6-22.2-6.2
					c-0.7-7-0.3-14.8,0-21.9c0.4-9.4,11.6-7.4,18.4-7.4c8,0,16,0,24,0c1.2,0,2.3-1.1,2.3-2.3c0-3.2,0-6.5,0-9.7
					c0-1.2-1.1-2.3-2.3-2.3c-12.6,0-25.1,0-37.7,0C193.8,53.1,193.8,57.7,196.8,57.7z"/>
			</g>
		</g>
		<g>
			<path fill="#55B596" d="M245.4,28.9h10.7v85.9h-10.7V28.9z"/>
			<g>
				<path fill="#55B596" d="M245.4,31.2c3.6,0,7.1,0,10.7,0c-0.8-0.8-1.5-1.5-2.3-2.3c0,25.1,0,50.1,0,75.2c0,3.6,0,7.2,0,10.7
					c0.8-0.8,1.5-1.5,2.3-2.3c-3.6,0-7.1,0-10.7,0c0.8,0.8,1.5,1.5,2.3,2.3c0-25.1,0-50.1,0-75.2c0-3.6,0-7.2,0-10.7
					c0-3-4.6-3-4.6,0c0,25.1,0,50.1,0,75.2c0,3.6,0,7.2,0,10.7c0,1.2,1.1,2.3,2.3,2.3c3.6,0,7.1,0,10.7,0c1.2,0,2.3-1.1,2.3-2.3
					c0-25.1,0-50.1,0-75.2c0-3.6,0-7.2,0-10.7c0-1.2-1.1-2.3-2.3-2.3c-3.6,0-7.1,0-10.7,0C242.5,26.6,242.5,31.2,245.4,31.2z"/>
			</g>
		</g>
		<g>
			<path fill="#55B596" d="M267.4,55.4H278v59.4h-10.7V55.4z"/>
			<g>
				<path fill="#55B596" d="M267.4,57.7c3.6,0,7.1,0,10.7,0c-0.8-0.8-1.5-1.5-2.3-2.3c0,19.8,0,39.6,0,59.4c0.8-0.8,1.5-1.5,2.3-2.3
					c-3.6,0-7.1,0-10.7,0c0.8,0.8,1.5,1.5,2.3,2.3c0-19.8,0-39.6,0-59.4c0-3-4.6-3-4.6,0c0,19.8,0,39.6,0,59.4
					c0,1.2,1.1,2.3,2.3,2.3c3.6,0,7.1,0,10.7,0c1.2,0,2.3-1.1,2.3-2.3c0-19.8,0-39.6,0-59.4c0-1.2-1.1-2.3-2.3-2.3
					c-3.6,0-7.1,0-10.7,0C264.4,53.1,264.4,57.7,267.4,57.7z"/>
			</g>
		</g>
		<g>
			<path fill="#55B596" d="M306.3,55.4h25.4c4.9,0,9,1.6,12.4,4.7c3.4,3,5.1,6.7,5.1,11.1v19.4h-49.8v10.9c0,1.2,0.5,2.1,1.6,2.9
				c1.1,0.7,2.4,1.1,3.9,1.1h39v9.3h-40.9c-3.9,0-7.3-1.2-10.1-3.5c-2.8-2.4-4.1-5.3-4.1-8.6V90.7V71.2c0-4.4,1.7-8.1,5.1-11.2
				C297.4,57,301.5,55.4,306.3,55.4z M308.9,65.1c-2.6,0-4.9,0.8-6.7,2.4c-1.8,1.6-2.7,3.6-2.7,6v7.6h39.1v-7.6c0-2.4-1-4.5-2.7-6.1
				c-1.7-1.6-3.9-2.4-6.6-2.3H308.9z"/>
			<g>
				<path fill="#55B596" d="M306.3,57.7c9.2,0,19.2-1.2,28.2,0.2c6.2,1,11.7,5.7,12.3,12.1c0.2,1.9,0.1,3.8,0.1,5.7
					c0,4.9,0,9.9,0,14.8c0.8-0.8,1.5-1.5,2.3-2.3c-16.6,0-33.2,0-49.8,0c-1.2,0-2.3,1.1-2.3,2.3c0,4-1.4,11.2,1.4,14.5
					c2.9,3.5,8.6,2.7,12.7,2.7c10.9,0,21.8,0,32.7,0c-0.8-0.8-1.5-1.5-2.3-2.3c0,3.1,0,6.2,0,9.3c0.8-0.8,1.5-1.5,2.3-2.3
					c-12.5,0-25,0-37.5,0c-2.3,0-4.5,0.1-6.8-0.4c-6.7-1.5-8.6-6.7-8.6-12.7c0-5.5,0-11,0-16.6c0-3.7-0.1-7.4,0-11.1
					C291.3,63.2,298.1,58,306.3,57.7c2.9-0.1,3-4.7,0-4.6c-11.7,0.4-19.8,8.4-19.8,20.1c0,6.9,0,13.8,0,20.7c0,3.7-0.5,7.8,0.3,11.5
					c1.3,6.3,7.1,10.5,13.2,11.5c6.6,1,13.8,0.3,20.5,0.3c7.8,0,15.6,0,23.4,0c1.2,0,2.3-1.1,2.3-2.3c0-3.1,0-6.2,0-9.3
					c0-1.2-1.1-2.3-2.3-2.3c-9.2,0-18.5,0-27.7,0c-3.3,0-7.8,0.8-11.1,0c-3.8-1-3.4-2.7-3.4-5.8c0-2.3,0-4.6,0-6.8
					c-0.8,0.8-1.5,1.5-2.3,2.3c16.6,0,33.2,0,49.8,0c1.2,0,2.3-1.1,2.3-2.3c0-12.5,3.1-28.8-10.5-35.4c-5.6-2.7-12.1-2.1-18.1-2.1
					c-5.5,0-11,0-16.6,0C303.4,53.1,303.4,57.7,306.3,57.7z"/>
				<path fill="#55B596" d="M308.9,62.8c-5.3,0.3-10.4,3.1-11.5,8.7c-0.6,3.1-0.2,6.5-0.2,9.6c0,1.2,1.1,2.3,2.3,2.3
					c13,0,26.1,0,39.1,0c1.2,0,2.3-1.1,2.3-2.3c0-3.4,0.6-7.6-0.6-10.9c-1.7-4.9-6.3-7.2-11.2-7.3C322.3,62.6,315.6,62.8,308.9,62.8
					c-3,0-3,4.6,0,4.6c5.8,0,11.6,0,17.4,0c4.5,0,9.3,0.5,10,6.1c0.3,2.5,0,5.1,0,7.6c0.8-0.8,1.5-1.5,2.3-2.3c-13,0-26.1,0-39.1,0
					c0.8,0.8,1.5,1.5,2.3,2.3c0-5.9-1.1-13.2,7.1-13.7C311.8,67.2,311.8,62.6,308.9,62.8z"/>
			</g>
		</g>
		<g>
			<path fill="#55B596" d="M421.6,71.3v43.5h-10.8V73.5c0-2.4-0.9-4.5-2.7-6.1c-1.8-1.6-4-2.4-6.7-2.4h-21.2c-2.7,0-4.9,0.8-6.7,2.4
				c-1.7,1.6-2.6,3.6-2.7,6.1v41.3h-10.7V71.3c0-4.4,1.7-8.1,5.1-11.2c3.5-3.1,7.6-4.7,12.4-4.7h26.4c4.9,0,9,1.6,12.4,4.7
				C419.9,63.2,421.6,66.9,421.6,71.3z"/>
			<g>
				<path fill="#55B596" d="M419.4,71.3c0,14.5,0,29,0,43.5c0.8-0.8,1.5-1.5,2.3-2.3c-3.6,0-7.2,0-10.8,0c0.8,0.8,1.5,1.5,2.3,2.3
					c0-8.9,0-17.7,0-26.6c0-7.8,2.5-20.4-6.4-24.4c-4.1-1.8-9.5-1.1-13.8-1.1c-4.2,0-8.4-0.2-12.6,0c-6.4,0.3-11.3,4.3-11.6,10.9
					c-0.2,3.5,0,7,0,10.4c0,10.2,0,20.5,0,30.7c0.8-0.8,1.5-1.5,2.3-2.3c-3.6,0-7.1,0-10.7,0c0.8,0.8,1.5,1.5,2.3,2.3
					c0-12.5,0-25,0-37.5c0-1.9-0.1-3.9,0-5.8c0.2-6.6,4.8-11.8,11.3-13.4c6.2-1.5,13.8-0.4,20.1-0.4
					C404.2,57.7,418.7,57.1,419.4,71.3c0.1,2.9,4.7,3,4.6,0c-0.5-11.8-10.4-18.1-21.4-18.1c-8,0-16-0.1-24,0
					c-10.7,0.1-20.2,7-20.5,18.3c-0.2,6.9,0,13.8,0,20.7c0,7.6,0,15.2,0,22.8c0,1.2,1.1,2.3,2.3,2.3c3.6,0,7.1,0,10.7,0
					c1.2,0,2.3-1.1,2.3-2.3c0-7.2,0-14.4,0-21.6c0-4.8,0-9.5,0-14.3c0-3.5-0.7-8,2.6-10.3c3.2-2.2,9.4-1.2,13-1.2
					c4.1,0,8.3-0.2,12.4,0c5.9,0.3,7.3,4.2,7.3,9c0,4.3,0,8.5,0,12.8c0,8.5,0,17.1,0,25.6c0,1.2,1.1,2.3,2.3,2.3c3.6,0,7.2,0,10.8,0
					c1.2,0,2.3-1.1,2.3-2.3c0-14.5,0-29,0-43.5C423.9,68.3,419.4,68.3,419.4,71.3z"/>
			</g>
		</g>
		<g>
			<path fill="#55B596" d="M432.1,38.6h10.7v16.8H470v9.7h-27.2v31.6c0,2.3,0.8,4.3,2.4,6c1.6,1.7,3.6,2.5,6,2.5H470v9.6h-20.4
				c-4.8,0-9-1.6-12.5-4.7c-3.5-3.1-5.2-6.8-5.1-11.1V38.6z"/>
			<g>
				<path fill="#55B596" d="M432.1,40.9c3.6,0,7.1,0,10.7,0c-0.8-0.8-1.5-1.5-2.3-2.3c0,5.6,0,11.2,0,16.8c0,1.2,1.1,2.3,2.3,2.3
					c9.1,0,18.2,0,27.2,0c-0.8-0.8-1.5-1.5-2.3-2.3c0,3.2,0,6.4,0,9.7c0.8-0.8,1.5-1.5,2.3-2.3c-9.1,0-18.1,0-27.2,0
					c-1.2,0-2.3,1.1-2.3,2.3c0,10.5-0.5,21.1,0,31.5c0.7,14.6,19.6,10.9,29.5,10.9c-0.8-0.8-1.5-1.5-2.3-2.3c0,3.2,0,6.4,0,9.6
					c0.8-0.8,1.5-1.5,2.3-2.3c-6.3,0-12.6,0-19,0c-9.4-0.1-16.6-5.4-16.7-15.1c-0.1-14.6,0-29.2,0-43.9c0-5,0-10,0-14.9
					c0-3-4.6-3-4.6,0c0,13.8,0,27.6,0,41.4c0,6.1-0.1,12.2,0,18.3c0.1,10,7.6,17.6,17.5,18.7c7.5,0.8,15.2,0.1,22.7,0.1
					c1.2,0,2.3-1.1,2.3-2.3c0-3.2,0-6.4,0-9.6c0-1.2-1.1-2.3-2.3-2.3c-4.8,0-9.6,0-14.5,0c-2.1,0-5,0.4-7-0.6
					c-3.1-1.5-3.4-4.8-3.4-7.7c0-9.8,0-19.7,0-29.5c-0.8,0.8-1.5,1.5-2.3,2.3c9.1,0,18.1,0,27.2,0c1.2,0,2.3-1.1,2.3-2.3
					c0-3.2,0-6.4,0-9.7c0-1.2-1.1-2.3-2.3-2.3c-9.1,0-18.2,0-27.2,0c0.8,0.8,1.5,1.5,2.3,2.3c0-5.6,0-11.2,0-16.8
					c0-1.2-1.1-2.3-2.3-2.3c-3.6,0-7.1,0-10.7,0C429.1,36.3,429.1,40.9,432.1,40.9z"/>
			</g>
		</g>
		<g>
			<path fill="#55B596" d="M479.9,55.4H492l23.6,49.1l23.6-49.1h12.2l-29.4,59.4h-12.8L479.9,55.4z"/>
			<g>
				<path fill="#55B596" d="M479.9,57.7c4.1,0,8.1,0,12.2,0c-0.7-0.4-1.3-0.8-2-1.1c7.9,16.4,15.8,32.8,23.6,49.1
					c0.7,1.5,3.2,1.5,4,0c7.9-16.4,15.8-32.8,23.6-49.1c-0.7,0.4-1.3,0.8-2,1.1c4.1,0,8.1,0,12.2,0c-0.7-1.1-1.3-2.3-2-3.4
					c-9.8,19.8-19.6,39.6-29.4,59.4c0.7-0.4,1.3-0.8,2-1.1c-4.3,0-8.5,0-12.8,0c0.7,0.4,1.3,0.8,2,1.1
					c-9.8-19.8-19.6-39.6-29.4-59.4c-1.3-2.6-5.3-0.3-4,2.3c9.8,19.8,19.6,39.6,29.4,59.4c0.4,0.7,1.2,1.1,2,1.1c4.3,0,8.5,0,12.8,0
					c0.8,0,1.6-0.4,2-1.1c9.8-19.8,19.6-39.6,29.4-59.4c0.8-1.5-0.2-3.4-2-3.4c-4.1,0-8.1,0-12.2,0c-0.8,0-1.6,0.4-2,1.1
					c-7.9,16.4-15.8,32.8-23.6,49.1c1.3,0,2.6,0,4,0C509.8,87,501.9,70.7,494,54.3c-0.3-0.7-1.2-1.1-2-1.1c-4.1,0-8.1,0-12.2,0
					C476.9,53.1,476.9,57.7,479.9,57.7z"/>
			</g>
		</g>
		<g>
			<path fill="#55B596" d="M562.2,55.4h10.7v59.4h-10.7V55.4z"/>
			<g>
				<path fill="#55B596" d="M562.2,57.7c3.6,0,7.1,0,10.7,0c-0.8-0.8-1.5-1.5-2.3-2.3c0,19.8,0,39.6,0,59.4c0.8-0.8,1.5-1.5,2.3-2.3
					c-3.6,0-7.1,0-10.7,0c0.8,0.8,1.5,1.5,2.3,2.3c0-19.8,0-39.6,0-59.4c0-3-4.6-3-4.6,0c0,19.8,0,39.6,0,59.4
					c0,1.2,1.1,2.3,2.3,2.3c3.6,0,7.1,0,10.7,0c1.2,0,2.3-1.1,2.3-2.3c0-19.8,0-39.6,0-59.4c0-1.2-1.1-2.3-2.3-2.3
					c-3.6,0-7.1,0-10.7,0C559.3,53.1,559.3,57.7,562.2,57.7z"/>
			</g>
		</g>
		<g>
			<path fill="#55B596" d="M645.7,71.3v43.5h-10.8V73.5c0-2.4-0.9-4.5-2.7-6.1c-1.8-1.6-4-2.4-6.7-2.4h-21.2c-2.7,0-4.9,0.8-6.7,2.4
				c-1.7,1.6-2.6,3.6-2.7,6.1v41.3h-10.7V71.3c0-4.4,1.7-8.1,5.1-11.2c3.5-3.1,7.6-4.7,12.4-4.7h26.4c4.9,0,9,1.6,12.4,4.7
				C644,63.2,645.7,66.9,645.7,71.3z"/>
			<g>
				<path fill="#55B596" d="M643.4,71.3c0,14.5,0,29,0,43.5c0.8-0.8,1.5-1.5,2.3-2.3c-3.6,0-7.2,0-10.8,0c0.8,0.8,1.5,1.5,2.3,2.3
					c0-8.9,0-17.7,0-26.6c0-7.8,2.5-20.4-6.4-24.4c-4.1-1.8-9.5-1.1-13.8-1.1c-4.2,0-8.4-0.2-12.6,0c-6.4,0.3-11.3,4.3-11.6,10.9
					c-0.2,3.5,0,7,0,10.4c0,10.2,0,20.5,0,30.7c0.8-0.8,1.5-1.5,2.3-2.3c-3.6,0-7.1,0-10.7,0c0.8,0.8,1.5,1.5,2.3,2.3
					c0-12.5,0-25,0-37.5c0-1.9-0.1-3.9,0-5.8c0.2-6.6,4.8-11.8,11.3-13.4c6.2-1.5,13.8-0.4,20.1-0.4
					C628.2,57.7,642.8,57.1,643.4,71.3c0.1,2.9,4.7,3,4.6,0c-0.5-11.8-10.4-18.1-21.4-18.1c-8,0-16-0.1-24,0
					c-10.7,0.1-20.2,7-20.5,18.3c-0.2,6.9,0,13.8,0,20.7c0,7.6,0,15.2,0,22.8c0,1.2,1.1,2.3,2.3,2.3c3.6,0,7.1,0,10.7,0
					c1.2,0,2.3-1.1,2.3-2.3c0-7.2,0-14.4,0-21.6c0-4.8,0-9.5,0-14.3c0-3.5-0.7-8,2.6-10.3c3.2-2.2,9.4-1.2,13-1.2
					c4.1,0,8.3-0.2,12.4,0c5.9,0.3,7.3,4.2,7.3,9c0,4.3,0,8.5,0,12.8c0,8.5,0,17.1,0,25.6c0,1.2,1.1,2.3,2.3,2.3c3.6,0,7.2,0,10.8,0
					c1.2,0,2.3-1.1,2.3-2.3c0-14.5,0-29,0-43.5C648,68.3,643.4,68.3,643.4,71.3z"/>
			</g>
		</g>
		<g>
			<path fill="#55B596" d="M674.4,55.4h25.4c4.9,0,9,1.6,12.4,4.7c3.4,3,5.1,6.7,5.1,11.1v19.4h-49.8v10.9c0,1.2,0.5,2.1,1.6,2.9
				c1.1,0.7,2.4,1.1,3.9,1.1h39v9.3h-40.9c-3.9,0-7.3-1.2-10.1-3.5c-2.8-2.4-4.1-5.3-4.1-8.6V90.7V71.2c0-4.4,1.7-8.1,5.1-11.2
				C665.5,57,669.6,55.4,674.4,55.4z M676.9,65.1c-2.6,0-4.9,0.8-6.7,2.4c-1.8,1.6-2.7,3.6-2.7,6v7.6h39.1v-7.6c0-2.4-1-4.5-2.7-6.1
				c-1.7-1.6-3.9-2.4-6.6-2.3H676.9z"/>
			<g>
				<path fill="#55B596" d="M674.4,57.7c9.2,0,19.2-1.2,28.2,0.2c6.2,1,11.7,5.7,12.3,12.1c0.2,1.9,0.1,3.8,0.1,5.7
					c0,4.9,0,9.9,0,14.8c0.8-0.8,1.5-1.5,2.3-2.3c-16.6,0-33.2,0-49.8,0c-1.2,0-2.3,1.1-2.3,2.3c0,4-1.4,11.2,1.4,14.5
					c2.9,3.5,8.6,2.7,12.7,2.7c10.9,0,21.8,0,32.7,0c-0.8-0.8-1.5-1.5-2.3-2.3c0,3.1,0,6.2,0,9.3c0.8-0.8,1.5-1.5,2.3-2.3
					c-12.5,0-25,0-37.5,0c-2.3,0-4.5,0.1-6.8-0.4c-6.7-1.5-8.6-6.7-8.6-12.7c0-5.5,0-11,0-16.6c0-3.7-0.1-7.4,0-11.1
					C659.4,63.2,666.2,58,674.4,57.7c2.9-0.1,3-4.7,0-4.6c-11.7,0.4-19.8,8.4-19.8,20.1c0,6.9,0,13.8,0,20.7c0,3.7-0.5,7.8,0.3,11.5
					c1.3,6.3,7.1,10.5,13.2,11.5c6.6,1,13.8,0.3,20.5,0.3c7.8,0,15.6,0,23.4,0c1.2,0,2.3-1.1,2.3-2.3c0-3.1,0-6.2,0-9.3
					c0-1.2-1.1-2.3-2.3-2.3c-9.2,0-18.5,0-27.7,0c-3.3,0-7.9,0.8-11.1,0c-3.8-1-3.4-2.7-3.4-5.8c0-2.3,0-4.6,0-6.8
					c-0.8,0.8-1.5,1.5-2.3,2.3c16.6,0,33.2,0,49.8,0c1.2,0,2.3-1.1,2.3-2.3c0-12.5,3.1-28.8-10.5-35.4c-5.6-2.7-12.1-2.1-18.1-2.1
					c-5.5,0-11,0-16.6,0C671.5,53.1,671.4,57.7,674.4,57.7z"/>
				<path fill="#55B596" d="M676.9,62.8c-5.3,0.3-10.4,3.1-11.5,8.7c-0.6,3.1-0.2,6.5-0.2,9.6c0,1.2,1.1,2.3,2.3,2.3
					c13,0,26.1,0,39.1,0c1.2,0,2.3-1.1,2.3-2.3c0-3.4,0.6-7.6-0.6-10.9c-1.7-4.9-6.3-7.2-11.2-7.3C690.4,62.6,683.7,62.8,676.9,62.8
					c-3,0-3,4.6,0,4.6c5.8,0,11.6,0,17.4,0c4.5,0,9.3,0.5,10,6.1c0.3,2.5,0,5.1,0,7.6c0.8-0.8,1.5-1.5,2.3-2.3c-13,0-26.1,0-39.1,0
					c0.8,0.8,1.5,1.5,2.3,2.3c0-5.9-1.1-13.2,7.1-13.7C679.9,67.2,679.9,62.6,676.9,62.8z"/>
			</g>
		</g>
	</g>
	<path fill="#55B596" d="M301.8,74.2c0,0-1,4.6,4.7,4.6s-7.4,3.6-7.4,3.6s0-6.3,0.1-6.7S301.8,74.2,301.8,74.2z"/>
	<path fill="#55B596" d="M336.4,74.2c0,0,1,4.6-4.7,4.6s7.4,3.6,7.4,3.6s0-6.3-0.1-6.7S336.4,74.2,336.4,74.2z"/>
	<path fill="#55B596" d="M445.1,71.6c0,0-0.3-4.2,4.8-4.2s-3.8-1.5-3.8-1.5l-2.3,0.6l0.2,4.4L445.1,71.6z"/>
	<path fill="#55B596" d="M449.4,53.1c0,0-4.2,0.3-4.2-4.8s-1.5,3.8-1.5,3.8l0.6,2.3l4.4-0.2L449.4,53.1z"/>
	<path fill="#55B596" d="M669.8,97.2c0,0-0.3-4.2,4.8-4.2s-3.8-1.5-3.8-1.5l-2.3,0.6l0.2,4.4L669.8,97.2z"/>
	<path fill="#55B596" d="M669.9,74.5c0,0-0.3,4.2,4.8,4.2c5.1,0-3.8,1.5-3.8,1.5l-2.3-0.6l0.2-4.4L669.9,74.5z"/>
	<path fill="#55B596" d="M704.4,74.6c0,0,0.3,4.2-4.8,4.2c-5.1,0,3.8,1.5,3.8,1.5l2.3-0.6l-0.2-4.4L704.4,74.6z"/>
	<path fill="#55B596" d="M510,87.7l1.3,4.6l4.1,7.9l1.8-2.1l4.1-10.5C521.3,87.5,515.9,94.9,510,87.7z"/>
	<path fill="#55B596" d="M301.8,97.2c0,0-0.3-4.2,4.8-4.2c5.1,0-3.8-1.5-3.8-1.5l-2.3,0.6l0.2,4.4L301.8,97.2z"/>
</g>
</svg>
